<svg version="1.2" xmlns="http://www.w3.org/2000/svg" viewBox="0 0 16 12" width="16" height="12">
	<title>logo-black-icon-svg</title>
	<style>
		.s0 { fill: none;stroke: #000000;stroke-width: .6 } 
		.s1 { fill: #000000 } 
	</style>
	<path id="Layer" fill-rule="evenodd" class="s0" d="m0.8 0.3h14.7v10.8h-14.7z"/>
	<path id="Layer" fill-rule="evenodd" class="s1" d="m1.6 3.8q-0.3-0.2-0.5-0.5-0.3-0.2-0.4-0.6-0.1-0.3-0.1-0.7 0-0.3 0.1-0.7 0.1-0.3 0.4-0.6 0.2-0.3 0.6-0.4 0.3-0.2 0.7-0.2 0.4 0 0.8 0.2 0.3 0.2 0.5 0.4 0.3 0.3 0.4 0.6 0.1 0.4 0.1 0.7 0 0.4-0.1 0.7-0.1 0.4-0.4 0.7-0.2 0.2-0.6 0.4-0.1 0-0.2 0h0.7v0.6h-1.2v3.2h-0.6v-3.2h-1.3v-0.6h1.3q-0.1 0-0.2 0zm-0.4-1.8q0 0.3 0.1 0.5 0 0.3 0.2 0.5 0.2 0.2 0.4 0.3 0.2 0.1 0.5 0.1 0.3 0 0.5-0.1 0.2-0.1 0.4-0.3 0.2-0.2 0.2-0.5 0.1-0.2 0.1-0.5 0-0.2-0.1-0.5-0.1-0.2-0.2-0.4-0.2-0.2-0.4-0.3-0.2-0.1-0.5-0.1-0.3 0-0.5 0.1-0.2 0.1-0.4 0.3-0.2 0.2-0.2 0.4-0.1 0.3-0.1 0.5zm8.5-1.8v3.6h1.6v0.6h-2.1v1h1.1q0.7 0 1 0.3 0.3 0.3 0.3 0.8 0 0.3-0.1 0.5-0.2 0.3-0.4 0.4-0.1 0.1-0.3 0.1h0.3v3.2h0.5v1.3h-0.6v-0.7h-2.7v0.7h-0.5v-0.7h-0.7l-0.4-1.1h-1.4l-0.4 1.1h-0.7l1.5-3.7h-0.9v-3.8h1.8v-3.6h0.6v1.5h1.9v-1.5zm-1.1 3.6h0.5v-1.6h-1.9v1.6h0.1v0.6h-2v1h1.8v0.5h-1.8v1.2h2.1v0.5h-1.1l1.4 3.6v-0.5h0.2q0.2 0 0.3-0.1 0.1-0.1 0.2-0.3 0.1-0.3 0.1-0.7 0.1-0.4 0.1-1v-1.1zm4.6-0.1q-0.4-0.1-0.6-0.4-0.2-0.3-0.4-0.6-0.1-0.3-0.1-0.7 0-0.4 0.1-0.7 0.2-0.3 0.4-0.6 0.3-0.3 0.6-0.4 0.3-0.2 0.7-0.2 0.4 0 0.8 0.2 0.3 0.1 0.6 0.4 0.2 0.3 0.3 0.6 0.2 0.4 0.2 0.7 0 0.4-0.2 0.7-0.1 0.4-0.4 0.6-0.2 0.3-0.5 0.5-0.1 0-0.2 0h0.9v0.5h-2v1.1h1.7v0.5h-1.7v1.1h2v0.6h-1q0.2 0 0.3 0 0.3 0.2 0.5 0.5 0.3 0.3 0.4 0.6 0.1 0.3 0.1 0.7 0 0.4-0.1 0.7-0.1 0.3-0.4 0.6-0.2 0.3-0.6 0.4-0.3 0.2-0.7 0.2-0.4 0-0.7-0.2-0.4-0.1-0.6-0.4-0.3-0.3-0.4-0.6-0.1-0.4-0.1-0.7 0-0.4 0.1-0.7 0.1-0.4 0.4-0.6 0.2-0.3 0.6-0.5 0.1 0 0.2 0h-0.6v-3.8h0.6q-0.1 0-0.2-0.1zm-0.5-1.7q0 0.3 0.1 0.5 0.1 0.3 0.2 0.5 0.2 0.2 0.4 0.3 0.2 0.1 0.5 0.1 0.3 0 0.5-0.1 0.3-0.2 0.4-0.4 0.2-0.2 0.3-0.4 0-0.2 0-0.5 0-0.3 0-0.5-0.1-0.2-0.3-0.4-0.1-0.2-0.4-0.3-0.2-0.1-0.5-0.1-0.3 0-0.5 0.1-0.2 0.1-0.4 0.3-0.1 0.2-0.2 0.4-0.1 0.3-0.1 0.5zm-3.5 5h1.1q0.2 0 0.4 0 0.1-0.1 0.2-0.3 0.1-0.1 0.1-0.3 0-0.1-0.1-0.2 0-0.2-0.2-0.3-0.1 0-0.4 0h-1.1zm-5.6 0.4v3.8h-0.6v-1.7h-1.9v1.7h-0.6v-3.8h0.6v1.6h1.9v-1.6zm3 2.3l-0.6-1.6-0.7 1.6zm2.1 0.9h1.8v-2.7h-1.3v0.7q0 0.6-0.1 1 0 0.4-0.1 0.7-0.1 0.2-0.3 0.3zm4-1.3q0 0.3 0.1 0.5 0.1 0.2 0.2 0.4 0.2 0.2 0.4 0.3 0.3 0.2 0.5 0.2 0.3 0 0.6-0.2 0.2-0.1 0.3-0.3 0.2-0.2 0.3-0.4 0.1-0.3 0.1-0.5 0-0.3-0.1-0.5-0.1-0.3-0.3-0.5-0.1-0.1-0.4-0.3-0.2-0.1-0.5-0.1-0.2 0-0.5 0.1-0.2 0.2-0.4 0.4-0.1 0.2-0.2 0.4-0.1 0.2-0.1 0.5z"/>
</svg>